<svg width="94" height="53" fill="none" xmlns="http://www.w3.org/2000/svg"><path fill-rule="evenodd" clip-rule="evenodd" d="M80.028 3.115c1.99.367 2.341 1.253 1.171 2.558-3.101 3.654-9.008 4.437-17.668 2.244-12.636-4.384-22.874-1.93-30.537 7.412-9.419 13.049-17.082 18.268-22.991 15.66C6.2 29.473 4.738 27.28 5.439 24.41c.76-2.767.176-4.436-1.638-4.75-1.87-.417-3.159.26-3.744 1.983-.468 5.741 1.93 9.448 7.079 11.17 3.452 1.096 7.488.522 12.052-1.67 4.504-2.192 9.068-6.16 13.572-11.848 3.393-4.019 7.137-6.682 11.173-7.986 4.797-1.409 9.185-.991 13.221 1.149 2.633 1.618 5.383 4.176 8.25 7.567 2.282 1.879 5.206 2.35 8.833 1.306.293-.106.645-.26.937-.314l.994 2.558c.059 1.148-.526 1.826-1.698 1.983-1.226.157-3.158.365-5.731.626-1.347.47-1.58 1.306-.76 2.506 1.052 1.513 3.158 1.566 6.318 0 3.159-1.461 4.328-4.54 3.508-9.134 1.581-1.149 2.691-2.714 3.276-4.646.937-3.236 4.096-5.898 9.537-7.985 5.381-2.036 2.633-3.289-8.308-3.654C80.263.245 78.625-.694 77.513.506c-1.17 1.148-.292 2.036 2.515 2.609z" fill="#FFC614"/><path fill-rule="evenodd" clip-rule="evenodd" d="M44.577 13.661c-3.451 1.096-6.259 3.287-8.424 6.42-2.282 4.28-.41 7.15 5.616 8.663-2.165 3.915-5.85 7.934-10.998 12.006-2.808 4.854-3.686 8.56-2.634 11.013.88.73 1.99.156 3.395-1.828 1.345-1.93 1.99-5.01 1.697-9.342 5.498-1.619 11.64-4.28 18.486-8.142 5.967-3.34 8.657-7.204 8.073-11.692-.41-2.662-1.697-4.75-3.98-6.159-3.45-1.827-7.136-2.14-11.23-.939z" fill="#FFC614"/></svg>