<svg width="94" height="53" viewBox="0 0 94 53" fill="none" xmlns="http://www.w3.org/2000/svg">
<path fill-rule="evenodd" clip-rule="evenodd" d="M80.0282 3.11502C82.0178 3.48177 82.3691 4.36815 81.1995 5.67263C78.0979 9.32662 72.1906 10.1095 63.5313 7.91675C50.895 3.53273 40.6572 5.98649 32.9936 15.3286C23.5753 28.3776 15.9117 33.5966 10.0027 30.9881C6.19966 29.474 4.73755 27.2812 5.43896 24.4113C6.19966 21.644 5.61507 19.9747 3.80117 19.6613C1.93016 19.2436 0.641996 19.9219 0.0574122 21.644C-0.410774 27.3854 1.98771 31.0919 7.13603 32.8141C10.5877 33.9105 14.624 33.3361 19.1877 31.1433C23.6922 28.952 28.2559 24.9846 32.7604 19.2961C36.1528 15.2772 39.8965 12.6143 43.9328 11.3098C48.7298 9.90107 53.1178 10.3188 57.1541 12.4587C59.7875 14.077 62.5374 16.6346 65.4041 20.0261C67.6861 21.905 70.6104 22.3756 74.2373 21.3321C74.5298 21.2263 74.8816 21.0711 75.1737 21.0182L76.1676 23.5759C76.2269 24.7236 75.6419 25.4023 74.4705 25.559C73.2438 25.7157 71.3118 25.9238 68.7389 26.1848C67.3919 26.6554 67.1587 27.4908 67.9787 28.6911C69.0314 30.2036 71.1374 30.2565 74.2966 28.6911C77.4558 27.2298 78.6254 24.1507 77.8054 19.557C79.386 18.4081 80.4964 16.8427 81.0814 14.9109C82.0178 11.6746 85.1769 9.01315 90.6178 6.92576C95.9993 4.8901 93.2512 3.63697 82.3103 3.27215C80.2631 0.245486 78.6254 -0.694168 77.5133 0.506072C76.3437 1.65381 77.2208 2.54212 80.0282 3.11502Z" fill="#FFC614"/>
<path fill-rule="evenodd" clip-rule="evenodd" d="M44.5772 13.661C41.1255 14.7574 38.3181 16.9482 36.1529 20.0807C33.8708 24.3604 35.7435 27.2315 41.7694 28.7441C39.6041 32.6591 35.9196 36.6779 30.7709 40.7496C27.9635 45.6038 27.0847 49.3092 28.1374 51.7625C29.0167 52.4925 30.127 51.9193 31.5316 49.9349C32.8769 48.0047 33.5211 44.9251 33.2286 40.5928C38.727 38.9745 44.8693 36.313 51.7151 32.451C57.6817 29.1104 60.3722 25.2472 59.7876 20.7593C59.3787 18.0975 58.0906 16.009 55.8089 14.6002C52.3572 12.7727 48.6723 12.4603 44.5772 13.661Z" fill="#FFC614"/>
</svg>
